<?xml version="1.0" standalone="no"?>
<!DOCTYPE svg PUBLIC "-//W3C//DTD SVG 20010904//EN"
 "http://www.w3.org/TR/2001/REC-SVG-20010904/DTD/svg10.dtd">
<svg version="1.0" xmlns="http://www.w3.org/2000/svg"
 width="700.000000pt" height="700.000000pt" viewBox="0 0 700.000000 700.000000"
 preserveAspectRatio="xMidYMid meet">
<metadata>
Created by potrace 1.14, written by Peter Selinger 2001-2017
</metadata>
<g transform="translate(0.000000,700.000000) scale(0.100000,-0.100000)"
fill="#000000" stroke="none">
<path d="M3278 6996 c-1 -2 -41 -6 -88 -10 -47 -4 -101 -9 -120 -12 -139 -19
-252 -40 -360 -66 -69 -16 -133 -31 -143 -33 -10 -2 -68 -20 -129 -40 -687
-225 -1262 -626 -1702 -1189 -158 -201 -328 -483 -421 -696 -25 -58 -50 -114
-55 -125 -45 -93 -150 -427 -176 -560 -2 -11 -10 -54 -19 -95 -22 -115 -30
-160 -41 -255 -26 -230 -26 -666 1 -826 2 -13 6 -46 9 -74 9 -78 22 -152 51
-285 21 -96 91 -339 114 -395 5 -11 25 -65 46 -120 63 -166 249 -531 312 -610
4 -6 34 -49 65 -95 261 -390 673 -772 1113 -1032 373 -221 845 -385 1274 -444
25 -3 57 -8 71 -10 163 -25 682 -25 842 1 13 2 46 7 73 10 71 10 86 13 120 19
17 3 44 8 60 11 309 53 743 213 1039 384 49 28 91 51 93 51 10 0 268 180 353
247 152 119 324 280 450 422 36 41 70 79 76 85 65 68 263 353 352 508 46 79
172 331 172 342 0 3 11 29 24 58 57 127 151 421 182 573 17 81 54 301 59 350
4 33 9 71 11 85 9 46 11 524 4 605 -15 153 -21 210 -25 225 -2 8 -7 35 -10 60
-17 129 -80 384 -136 552 -349 1038 -1172 1861 -2209 2207 -176 59 -412 117
-550 136 -19 3 -46 7 -60 10 -13 2 -54 7 -90 11 -36 3 -76 8 -90 11 -27 5
-536 14 -542 9z m497 -669 c11 -3 49 -8 85 -12 36 -4 74 -9 85 -11 24 -5 70
-13 110 -20 124 -21 436 -115 540 -163 74 -35 295 -144 320 -158 492 -287 892
-717 1137 -1223 135 -277 220 -560 262 -865 29 -216 28 -574 -3 -770 -6 -33
-12 -76 -15 -95 -11 -69 -17 -96 -42 -199 -24 -96 -85 -287 -114 -356 -7 -16
-14 -35 -15 -41 -2 -6 -37 -81 -79 -166 -77 -157 -229 -397 -330 -522 -388
-481 -929 -830 -1511 -975 -66 -16 -133 -32 -150 -35 -50 -9 -88 -16 -125 -22
-19 -3 -46 -7 -60 -10 -112 -19 -483 -25 -625 -11 -108 11 -181 21 -231 31
-12 2 -37 7 -55 10 -130 22 -376 93 -504 146 -424 176 -767 414 -1053 730
-313 345 -528 743 -651 1200 -21 80 -50 223 -56 280 -3 19 -6 44 -9 55 -19 78
-27 470 -13 633 7 89 26 217 41 287 41 189 42 192 78 305 233 744 771 1366
1478 1708 302 146 674 248 979 269 47 3 88 7 89 8 5 5 414 -3 437 -8z"/>
</g>
</svg>
